<!--?xml version="1.0" standalone="no"?-->
              <svg id="sw-js-blob-svg" viewBox="0 0 100 100" xmlns="http://www.w3.org/2000/svg" version="1.1">
                    <defs> 
                        <linearGradient id="sw-gradient" x1="0" x2="1" y1="1" y2="0">
                            <stop id="stop1" stop-color="rgba(248, 117, 55, 1)" offset="0%"></stop>
                            <stop id="stop2" stop-color="rgba(251, 168, 31, 1)" offset="100%"></stop>
                        </linearGradient>
                    </defs>
                <path fill="url(#sw-gradient)" d="M20.1,-30C27.1,-30.8,34.5,-27.5,37.4,-21.8C40.3,-16.1,38.7,-8.1,38.8,0.1C38.9,8.2,40.7,16.3,37.8,22.1C34.9,27.8,27.4,31.1,20.3,29.4C13.2,27.7,6.6,21,2,17.6C-2.7,14.1,-5.3,14,-12.3,15.6C-19.3,17.3,-30.7,20.8,-34.4,18.5C-38.2,16.2,-34.3,8.1,-33.4,0.5C-32.5,-7,-34.6,-14.1,-32.9,-20C-31.3,-26,-25.9,-30.8,-19.8,-30.6C-13.7,-30.3,-6.9,-25.1,-0.1,-24.8C6.6,-24.6,13.1,-29.3,20.1,-30Z" width="100%" height="100%" transform="translate(50 50)" stroke-width="0" style="transition: all 0.3s ease 0s;"></path>
              </svg>