<?xml version="1.0" encoding="iso-8859-1"?>
<!-- Generator: Adobe Illustrator 21.1.0, SVG Export Plug-In . SVG Version: 6.00 Build 0)  -->
<svg version="1.1" id="Layer_1" xmlns="http://www.w3.org/2000/svg" xmlns:xlink="http://www.w3.org/1999/xlink" x="0px" y="0px"
	 viewBox="0 0 24 24" enable-background="new 0 0 24 24" xml:space="preserve">
<path fill="#ca590e" d="M14.3476563,17.359375c-1.2509766,1.2089844-2.5546875,1.6289063-3.7597656,1.6289063
	c-2.6982422,0-4.5592651-2.4763184-4.5592651-2.4763184s4.2741089,3.3679199,7.6237183,0.1286621
	C17.3585205,13.0593872,22.9943848,16.9957275,23,16.9996338C22.9997559,13.6911621,19.1863403,11,14.5,11
	c-0.5512695,0-1.0890503,0.0402832-1.6113892,0.1113892C12.9597168,10.5890503,13,10.0512695,13,9.5
	c0-4.4556274-2.434082-8.1148682-5.5170288-8.465332C7.4280396,1.1048584,4.1469727,5.3301392,7.3592529,8.6518555
	c1.137085,1.1767578,1.5131836,2.5476074,1.5009766,3.871521c-0.2758179,0.1733398-0.536499,0.3577881-0.7783813,0.5547485
	c-0.0392456-1.3099976-0.4028931-2.6568604-1.4413452-3.730957C5.4315186,8.0961914,5.0115967,6.7924805,5.0115967,5.5874023
	c0-2.6491089,2.3811646-4.4866943,2.4682007-4.5529785C7.3210449,1.0164795,7.1619873,1,7,1C3.6914063,1,1,4.8134766,1,9.5
	c0,4.2546997,2.2207031,7.7794189,5.1051636,8.3948364C6.72052,20.7793579,10.2453003,23,14.5,23c4.6865234,0,8.5-2.6914063,8.5-6
	v-0.0002441C22.9943848,16.9970703,17.4954834,14.315979,14.3476563,17.359375z"/>
<g>
</g>
<g>
</g>
<g>
</g>
<g>
</g>
<g>
</g>
<g>
</g>
<g>
</g>
<g>
</g>
<g>
</g>
<g>
</g>
<g>
</g>
<g>
</g>
<g>
</g>
<g>
</g>
<g>
</g>
</svg>
