<?xml version="1.0" encoding="iso-8859-1"?>
<!-- Generator: Adobe Illustrator 23.0.2, SVG Export Plug-In . SVG Version: 6.00 Build 0)  -->
<svg version="1.1" id="Layer_1" xmlns="http://www.w3.org/2000/svg" xmlns:xlink="http://www.w3.org/1999/xlink" x="0px" y="0px"
	 viewBox="0 0 25 28" fill="#ca590e" style="enable-background:new 0 0 25 28;" xml:space="preserve">
<g id="milk_1_">
	<g>
		<path fill="#ca590e" style="opacity:0.75;" d="M23.5,25c-3.037,0-5.5-2.463-5.5-5.5s2.463-5.5,5.5-5.5c0.52,0,1.022,0.076,1.5,0.213
			c0-0.473,0-0.887,0-1.213c0-3-4-10-4-10h-4c0,0-4,7-4,10s0,13,0,13s0,2,2,2s4,0,4,0s2,0,4,0s2-2,2-2s0-0.461,0-1.213
			C24.522,24.922,24.02,25,23.5,25z"/>
		<path fill="#f17725" d="M23.5,15c-2.481,0-4.5,2.018-4.5,4.5c0,2.48,2.019,4.5,4.5,4.5c0.528,0,1.028-0.109,1.5-0.277c0-2.303,0-5.879,0-8.447
			C24.528,15.107,24.028,15,23.5,15z"/>
	</g>
	<g>
		<polygon points="8,27 2.895,27 1.006,10 0,10 2,28 8.895,28 10.895,10 9.89,10 		"/>
	</g>
	<polygon points="2.895,27 8,27 9.556,13 1.34,13 	"/>
	<rect x="16" style="opacity:0.75;" width="6" height="2"/>
</g>
</svg>
