<?xml version="1.0" encoding="UTF-8"?>
<!DOCTYPE svg PUBLIC "-//W3C//DTD SVG 1.1//EN" "http://www.w3.org/Graphics/SVG/1.1/DTD/svg11.dtd">
<!-- Creator: CorelDRAW -->
<svg xmlns="http://www.w3.org/2000/svg" xml:space="preserve" width="8in" height="8in" style="shape-rendering:geometricPrecision; text-rendering:geometricPrecision; image-rendering:optimizeQuality; fill-rule:evenodd; clip-rule:evenodd"
viewBox="0 0 8 8"
 xmlns:xlink="http://www.w3.org/1999/xlink">
 <defs>
  <style type="text/css">
   <![CDATA[
    .fil2 {fill:url(#id0)}
    .fil3 {fill:url(#id1)}
    .fil0 {fill:url(#id2);fill-rule:nonzero}
    .fil1 {fill:url(#id3);fill-rule:nonzero}
   ]]>
  </style>
  <linearGradient id="id0" gradientUnits="userSpaceOnUse" x1="1.94982" y1="4" x2="6.05018" y2="4">
   <stop offset="0" style="stop-color:#ca590e"/>
   <stop offset="1" style="stop-color:#f17725"/>
  </linearGradient>
  <linearGradient id="id1" gradientUnits="userSpaceOnUse" xlink:href="#id0" x1="-0" y1="4" x2="8" y2="4">
  </linearGradient>
  <linearGradient id="id2" gradientUnits="userSpaceOnUse" xlink:href="#id0" x1="1.44" y1="4" x2="6.56" y2="4">
  </linearGradient>
  <linearGradient id="id3" gradientUnits="userSpaceOnUse" xlink:href="#id0" x1="3.9223" y1="4.37017" x2="4.0777" y2="4.37017">
  </linearGradient>
 </defs>
 <g id="Layer_x0020_1">
  <metadata id="CorelCorpID_0Corel-Layer"/>
  <path class="fil0" d="M1.80101 3.63899c0.0996732,0 0.189933,0.0404134 0.255268,0.105744 0.0653268,0.0653346 0.10574,0.155583 0.10574,0.255268 0,0.099685 -0.0404134,0.189933 -0.10574,0.255268 -0.0653346,0.0653307 -0.155594,0.105744 -0.255268,0.105744 -0.099685,0 -0.189937,-0.0404134 -0.255272,-0.105744 -0.0653268,-0.0653346 -0.10574,-0.155583 -0.10574,-0.255268 0,-0.099685 0.0404134,-0.189933 0.10574,-0.255268 0.0653346,-0.0653307 0.155587,-0.105744 0.255272,-0.105744zm1.0995 1.90438c0.0996732,0 0.189933,0.0404134 0.255268,0.105744 0.0653268,0.0653346 0.10574,0.155591 0.10574,0.255268 0,0.099685 -0.0404134,0.189933 -0.10574,0.255268 -0.0653346,0.0653268 -0.155594,0.105744 -0.255268,0.105744 -0.099685,0 -0.189933,-0.0404173 -0.255272,-0.105744 -0.0653268,-0.0653346 -0.10574,-0.155583 -0.10574,-0.255268 0,-0.0996772 0.0404134,-0.189933 0.10574,-0.255268 0.0653386,-0.0653307 0.155587,-0.105744 0.255272,-0.105744zm2.19898 0c0.099685,0 0.189933,0.0404134 0.255272,0.105744 0.0653268,0.0653346 0.10574,0.155591 0.10574,0.255268 0,0.099685 -0.0404134,0.189933 -0.10574,0.255268 -0.0653386,0.0653268 -0.155587,0.105744 -0.255272,0.105744 -0.0996732,0 -0.189933,-0.0404173 -0.255268,-0.105744 -0.0653268,-0.0653346 -0.10574,-0.155583 -0.10574,-0.255268 0,-0.0996772 0.0404134,-0.189933 0.10574,-0.255268 0.0653346,-0.0653307 0.155594,-0.105744 0.255268,-0.105744zm1.0995 -1.90438c0.099685,0 0.189937,0.0404134 0.255272,0.105744 0.0653268,0.0653346 0.10574,0.155583 0.10574,0.255268 0,0.099685 -0.0404134,0.189933 -0.10574,0.255268 -0.0653346,0.0653307 -0.155587,0.105744 -0.255272,0.105744 -0.0996732,0 -0.189933,-0.0404134 -0.255268,-0.105744 -0.0653268,-0.0653346 -0.10574,-0.155583 -0.10574,-0.255268 0,-0.099685 0.0404134,-0.189933 0.10574,-0.255268 0.0653346,-0.0653307 0.155594,-0.105744 0.255268,-0.105744zm-1.0995 -1.90438c0.099685,0 0.189933,0.0404173 0.255272,0.105744 0.0653268,0.0653346 0.10574,0.155583 0.10574,0.255268 0,0.0996772 -0.0404134,0.189933 -0.10574,0.255268 -0.0653386,0.0653307 -0.155587,0.105744 -0.255272,0.105744 -0.0996732,0 -0.189933,-0.0404134 -0.255268,-0.105744 -0.0653268,-0.0653346 -0.10574,-0.155591 -0.10574,-0.255268 0,-0.099685 0.0404134,-0.189933 0.10574,-0.255268 0.0653346,-0.0653268 0.155594,-0.105744 0.255268,-0.105744zm-2.19898 0c0.0996732,0 0.189933,0.0404173 0.255268,0.105744 0.0653268,0.0653346 0.10574,0.155583 0.10574,0.255268 0,0.0996772 -0.0404134,0.189933 -0.10574,0.255268 -0.0653346,0.0653307 -0.155594,0.105744 -0.255268,0.105744 -0.099685,0 -0.189933,-0.0404134 -0.255272,-0.105744 -0.0653268,-0.0653346 -0.10574,-0.155591 -0.10574,-0.255268 0,-0.099685 0.0404134,-0.189933 0.10574,-0.255268 0.0653386,-0.0653268 0.155587,-0.105744 0.255272,-0.105744z"/>
  <path class="fil1" d="M4.0777 4.26139c0,-0.0429134 -0.0347913,-0.0777047 -0.0777047,-0.0777047 -0.0429134,0 -0.0777047,0.0347913 -0.0777047,0.0777047l0 0.217539c0,0.0429173 0.0347913,0.0777087 0.0777047,0.0777087 0.0429134,0 0.0777047,-0.0347913 0.0777047,-0.0777087l0 -0.217539z"/>
  <path class="fil2" d="M4 4.55664c0.0429134,0 0.0777047,-0.0347913 0.0777047,-0.0777087l0 -0.217539c0,-0.0429134 -0.0347913,-0.0777047 -0.0777047,-0.0777047 -0.0429134,0 -0.0777047,0.0347913 -0.0777047,0.0777047l0 0.217539c0,0.0429173 0.0347913,0.0777087 0.0777047,0.0777087zm-0.33428 -0.895744l0.668528 0c-0.0109764,-0.133882 -0.0499528,-0.253063 -0.107283,-0.342358 -0.0607559,-0.0946496 -0.141154,-0.15313 -0.226965,-0.15313 -0.0862717,0 -0.166992,0.058874 -0.227783,0.154083 -0.0569134,0.0891299 -0.0955906,0.207925 -0.106496,0.341406zm-0.404476 1.2514l0 -1.17369c0,-0.0429173 0.0347953,-0.0777087 0.0777087,-0.0777087l0.171567 0c0.0116181,-0.164256 0.0595827,-0.312449 0.131169,-0.424571 0.0892992,-0.139846 0.215772,-0.226327 0.358311,-0.226327 0.142189,0 0.268307,0.0858346 0.357492,0.224764 0.0720551,0.112236 0.120346,0.261024 0.131992,0.426134l0.171559 0c0.0429173,0 0.0777087,0.0347913 0.0777087,0.0777087l0 1.17369c0,0.0429134 -0.0347913,0.0777047 -0.0777087,0.0777047l-1.32209 0c-0.0429134,0 -0.0777087,-0.0347913 -0.0777087,-0.0777047zm0.738756 1.06979l0.667677 0c-0.00455512,-0.0254409 -0.00689764,-0.0514291 -0.00689764,-0.0777047 0,-0.116677 0.0460118,-0.227724 0.1285,-0.310213 0.0824882,-0.0824882 0.193535,-0.1285 0.310213,-0.1285 0.104264,0 0.204016,0.0367402 0.282925,0.103413l0.330224 -0.571961c0.00137008,-0.00194882 0.00267717,-0.00397244 0.0038937,-0.00607874l-0.00015748 -9.05512e-005 0.333799 -0.578161c-0.0600709,-0.0216378 -0.115213,-0.0563858 -0.161402,-0.102575 -0.0824882,-0.0824921 -0.1285,-0.193531 -0.1285,-0.310213 0,-0.116681 0.0460118,-0.22772 0.1285,-0.310213 0.046189,-0.046189 0.101331,-0.080937 0.161402,-0.102575l-0.331146 -0.573563c-0.000779528,-0.00157874 -0.00160236,-0.00314567 -0.00249606,-0.00468898l-0.00015748 9.05512e-005 -5.51181e-005 -9.05512e-005 -0.000129921 7.48031e-005 -0.333776 -0.578114c-0.0789094,0.0666732 -0.178661,0.103413 -0.282925,0.103413 -0.116677,0 -0.227724,-0.0460118 -0.310213,-0.1285 -0.0824882,-0.0824882 -0.1285,-0.193535 -0.1285,-0.310213 0,-0.0262756 0.00234252,-0.0522638 0.00689764,-0.0777047l-0.667677 0 -0.667677 0c0.00455512,0.0254409 0.00689764,0.0514291 0.00689764,0.0777047 0,0.116677 -0.0460118,0.227724 -0.1285,0.310213 -0.0824882,0.0824882 -0.193535,0.1285 -0.310213,0.1285 -0.104264,0 -0.204016,-0.0367402 -0.282925,-0.103413l-0.330224 0.571961c-0.00137008,0.00194882 -0.00267717,0.00397244 -0.0038937,0.00607874l0.00015748 9.05512e-005 -0.333799 0.578161c0.0600709,0.0216378 0.115213,0.0563858 0.161402,0.102575 0.0824882,0.0824921 0.1285,0.193531 0.1285,0.310213 0,0.116681 -0.0460118,0.22772 -0.1285,0.310213 -0.046189,0.046189 -0.101331,0.080937 -0.161402,0.102575l0.331146 0.573563c0.000779528,0.00157874 0.00160236,0.00314567 0.00249606,0.00468898l0.00015748 -9.05512e-005 5.51181e-005 9.05512e-005 0.000129921 -7.48031e-005 0.333776 0.578114c0.0789094,-0.0666732 0.178661,-0.103413 0.282925,-0.103413 0.116677,0 0.227724,0.0460118 0.310213,0.1285 0.0824882,0.0824882 0.1285,0.193535 0.1285,0.310213 0,0.0262756 -0.00234252,0.0522638 -0.00689764,0.0777047l0.667677 0z"/>
  <path class="fil3" d="M1.28 0l5.44001 0c0.704,0 1.28,0.575996 1.28,1.28l0 5.44001c0,0.704 -0.575996,1.28 -1.28,1.28l-5.44001 0c-0.704,0 -1.28,-0.575996 -1.28,-1.28l0 -5.44001c0,-0.704 0.575996,-1.28 1.28,-1.28zm0 0.479996l5.44001 0c0.44,0 0.8,0.36 0.8,0.8l0 5.44001c0,0.44 -0.36,0.8 -0.8,0.8l-5.44001 0c-0.44,0 -0.8,-0.36 -0.8,-0.8l0 -5.44001c0,-0.44 0.36,-0.8 0.8,-0.8z"/>
 </g>
</svg>
